PathFileType	4	(X/Y/Z)	F:\MotionCapture\20160217\3\Generated_files\EMG_Fprce_test02-Dynamic.trc
DataRate	CameraRate	NumFrames	NumMarkers	Units	OrigDataRate	OrigDataStartFrame	OrigNumFrames
120.00	120.00	       4	39	mm	120.00	1	       703
Frame#	Time	Top.Head			Front.Head			Rear.Head			R.Shoulder			R.Offset			R.Elbow			R.Wrist			L.Shoulder			L.Elbow			L.Wrist			R.ASIS			L.ASIS			V.Sacral			R.Thigh			R.Knee			R.Shank			R.Ankle			R.Heel			R.Toe			L.Thigh			L.Knee			L.Shank			L.Ankle			L.Heel			L.Toe			R1			R2			R3			R4			R5			R6			R7			L1			L2			L3			L4			L5			L6			L7			V_Mid_ASIS			V_Pelvis_Origin			V_R.Hip_JC			V_L.Hip_JC			V_R.Knee_JC			V_L.Knee_JC			V_R.Ankle_JC			V_L.Ankle_JC			V_Mid_Hip			V_Mid_Shoulder			V_R.Hand			V_L.Hand			V_R.Toe_Offset_Static			V_L.Toe_Offset_Static			V_R.Toe_Offset			V_L.Toe_Offset			
		X1	Y1	Z1	X2	Y2	Z2	X3	Y3	Z3	X4	Y4	Z4	X5	Y5	Z5	X6	Y6	Z6	X7	Y7	Z7	X8	Y8	Z8	X9	Y9	Z9	X10	Y10	Z10	X11	Y11	Z11	X12	Y12	Z12	X13	Y13	Z13	X14	Y14	Z14	X15	Y15	Z15	X16	Y16	Z16	X17	Y17	Z17	X18	Y18	Z18	X19	Y19	Z19	X20	Y20	Z20	X21	Y21	Z21	X22	Y22	Z22	X23	Y23	Z23	X24	Y24	Z24	X25	Y25	Z25	X26	Y26	Z26	X27	Y27	Z27	X28	Y28	Z28	X29	Y29	Z29	X30	Y30	Z30	X31	Y31	Z31	X32	Y32	Z32	X33	Y33	Z33	X34	Y34	Z34	X35	Y35	Z35	X36	Y36	Z36	X37	Y37	Z37	X38	Y38	Z38	X39	Y39	Z39	

1	0.000	2452.68604	114.58392	1742.87634	2327.22705	114.95712	1679.75745	2547.35132	108.00628	1656.06238				2578.96655	44.11099	1277.58154	2311.79956	-124.16615	870.75720	2428.97607	-165.18607	1095.82874	2432.15723	-98.16292	1431.20166				2460.19653	313.36563	1431.08997	2374.60889	268.99243	960.79657	2354.08008	-20.96745	954.72339	2586.23560	105.76915	951.60791	2347.04956	239.11449	581.06622	2418.91846	280.10657	477.24203	2434.32471	220.05783	239.38631	2499.32788	294.67606	80.47485	2565.52344	233.45612	49.76071	2354.40503	282.59366	45.96826	2318.49316	20.08227	630.84808	2410.31177	-38.31045	473.60397	2407.33325	32.75396	330.77231	2484.34009	-41.18308	70.26436	2549.60718	13.14546	50.55353	2341.86426	-32.24138	46.75143	2305.63037	264.85773	43.18581	2348.77173	245.79543	52.47100	2445.15137	208.04062	59.54129	2518.56641	205.06302	46.17765	2537.19141	277.83792	52.07912	2461.26318	308.50406	43.70539	2394.90845	327.17694	42.08992	2297.68994	-4.55127	41.27760	2332.84839	7.50314	50.65100	2427.60498	48.11933	52.29513	2511.70459	45.95012	48.75020	2523.33350	-26.33725	51.99041	2447.04834	-54.21859	40.59948	2382.68091	-65.52899	45.07102																																																	2474.92334	404.24875	1101.09180	2343.76196	386.61600	874.78455	1793.52966	-119.58129	737.58185	
2	0.008	2452.43726	114.85658	1742.87097	2327.00049	115.19236	1679.60620	2547.26709	108.13440	1656.07605				2578.93188	44.38671	1277.75830	2312.04150	-123.85510	870.92365	2429.13379	-165.18323	1095.93787	2432.28027	-98.14793	1431.20276				2459.97925	313.49042	1431.13135	2374.62720	269.13678	960.73828	2354.29077	-20.95809	954.79553	2586.37793	106.15332	951.61847	2347.45313	239.13774	580.98303	2419.19385	280.28363	477.27551	2434.47998	220.18735	239.32195	2499.33960	294.69485	80.45051	2565.55981	233.50702	49.77203	2354.40918	282.61874	45.97489	2318.54370	20.09446	630.83331	2410.47876	-38.25259	473.75806	2407.37891	32.70272	330.77585	2484.32837	-41.08921	70.22489	2549.61230	13.14729	50.55497	2341.87817	-32.24097	46.76422	2305.65381	264.89667	43.20259	2348.79468	245.76335	52.43395	2445.17212	208.04776	59.55624	2518.58740	205.08527	46.19557	2537.21387	277.88599	52.05630	2461.47583	308.53555	43.68833	2394.86865	327.15497	42.09285	2297.72778	-4.54841	41.32434	2332.91235	7.42153	50.68647	2427.67212	48.21489	52.62404	2511.62598	45.94563	48.67585	2523.33887	-26.35498	51.95061	2447.10352	-54.24448	40.62091	2382.68970	-65.73379	44.91296																																																	2474.45776	404.31000	1101.31714	2343.87231	386.88379	874.04913	1795.44116	-119.09255	737.40509	
3	0.017	2452.17896	115.09040	1742.80359	2326.90479	115.27732	1679.55347	2547.14355	108.25392	1656.13562				2578.94897	44.71767	1277.89990	2312.01123	-123.49814	870.99652	2429.13574	-165.09746	1095.90308	2432.26099	-98.01778	1431.29468				2459.72705	313.62338	1431.39734	2374.46875	269.30310	960.73450	2354.38525	-20.81399	954.81458	2586.48706	106.39260	951.66016	2347.53442	239.19553	580.95740	2419.31494	280.48941	477.21872	2434.44238	220.17451	239.33510	2499.33276	294.74539	80.45718	2565.57886	233.55569	49.74813	2354.38062	282.67050	45.95013	2318.47729	20.06815	630.94885	2410.36548	-38.11775	473.71796	2407.32324	32.77630	330.71198	2484.34229	-41.15893	70.26344	2549.63232	13.13993	50.55671	2341.85376	-32.27112	46.70705	2305.76221	264.95303	43.26247	2348.81152	245.78973	52.43298	2445.23706	208.08475	59.58253	2518.65381	205.13864	46.18771	2537.28345	277.95465	52.06844	2461.37744	308.64627	43.65931	2394.88281	327.19553	42.06189	2297.65649	-4.63364	41.34864	2332.86621	7.41116	50.74622	2427.60669	48.07682	52.53558	2511.70776	45.97258	48.72250	2523.33594	-26.30176	51.94141	2447.10132	-54.31178	40.62629	2382.70923	-65.72864	44.92883																																																	2473.84766	404.62003	1101.45544	2344.06323	387.11981	873.62573	1796.04895	-118.93463	737.45264	2845.52124	142.40802	-100.85693	
4	0.025	2451.98096	115.28433	1742.82007	2326.85303	115.39192	1679.50098	2546.91138	108.27811	1656.11804				2578.97876	44.99803	1278.03857	2311.87549	-123.04478	871.17651	2429.21362	-165.15311	1095.99280	2432.14258	-97.64701	1431.43530				2459.39893	313.71225	1431.52563	2374.20068	269.46890	960.76898	2354.63403	-20.84634	954.88678	2586.68799	106.74663	951.64410	2347.53491	239.24113	581.00415	2419.30957	280.66122	477.26981	2434.55200	220.14703	239.37701	2499.36035	294.79266	80.39006	2565.62988	233.66655	49.73137	2354.40649	282.61255	45.97647	2318.44922	20.08085	630.94519	2410.40356	-38.06671	473.72583	2407.05518	32.74652	330.81509	2484.35059	-41.14836	70.27370	2549.63501	13.16535	50.56496	2341.79688	-32.23994	46.72520	2305.80103	264.97186	43.25146	2348.77759	245.71017	52.36831	2445.20972	208.08607	59.55613	2518.65405	205.13583	46.19609	2537.25757	277.94720	51.99734	2461.36548	308.71408	43.67120	2394.84448	327.24771	42.12431	2297.65479	-4.62506	41.30699	2332.82300	7.50373	50.67765	2427.47412	48.12588	52.54034	2511.73730	45.99306	48.75270	2523.35645	-26.33232	51.99127	2447.06616	-54.21436	40.64984	2382.67603	-65.67597	44.91085																																																	2473.24609	404.83432	1101.60608	2345.25781	388.07184	873.43024	1796.55933	-118.70895	737.40991	
